<?xml version="1.0" standalone="no"?>
<!DOCTYPE svg PUBLIC "-//W3C//DTD SVG 20010904//EN"
 "http://www.w3.org/TR/2001/REC-SVG-20010904/DTD/svg10.dtd">
<svg version="1.0" xmlns="http://www.w3.org/2000/svg"
 width="700.000000pt" height="700.000000pt" viewBox="0 0 700.000000 700.000000"
 preserveAspectRatio="xMidYMid meet">
<metadata>
Created by potrace 1.14, written by Peter Selinger 2001-2017
</metadata>
<g transform="translate(0.000000,700.000000) scale(0.100000,-0.100000)"
fill="#000000" stroke="none">
<path d="M4460 5475 c-113 -31 -219 -94 -311 -185 -119 -117 -239 -311 -255
-412 -6 -33 -30 -56 -288 -269 -161 -134 -319 -256 -371 -287 -518 -311 -1259
-878 -2030 -1553 -307 -268 -315 -277 -315 -326 0 -30 7 -47 26 -67 25 -25 32
-26 128 -26 55 0 142 -7 191 -15 308 -52 887 -39 1630 36 207 20 422 45 488
55 l38 6 -40 -81 c-23 -46 -41 -95 -41 -114 0 -18 36 -122 80 -232 44 -109 79
-199 77 -200 -1 -1 -79 -30 -174 -65 -98 -36 -180 -72 -192 -84 -33 -36 -31
-96 4 -131 39 -40 79 -33 302 50 l201 75 271 -45 c148 -25 286 -45 306 -45 41
0 80 32 90 73 9 35 -20 93 -53 106 -15 6 -145 30 -290 54 -144 24 -264 46
-265 48 -2 2 -38 91 -80 196 l-77 193 26 54 27 53 81 7 c292 23 639 195 873
433 241 245 417 524 480 760 23 86 26 118 26 253 0 85 -4 200 -10 256 -19 189
11 287 119 401 77 80 192 157 330 222 114 54 293 118 406 146 116 28 147 84
101 185 -69 153 -356 275 -779 331 -79 10 -111 21 -190 60 -146 73 -214 91
-360 95 -90 3 -140 0 -180 -11z m-225 -1019 c71 -18 106 -39 147 -84 51 -56
63 -100 62 -217 -2 -127 -32 -233 -113 -400 -175 -356 -490 -688 -802 -845
-364 -183 -1026 -302 -1954 -350 -121 -7 -242 -10 -269 -8 l-49 3 234 201
c988 846 1753 1393 2255 1611 217 93 369 121 489 89z"/>
<path d="M4129 4265 c-14 -8 -31 -27 -37 -42 -6 -15 -28 -73 -48 -128 -169
-462 -499 -796 -939 -954 -90 -33 -102 -40 -117 -71 -21 -43 -14 -81 21 -116
23 -24 31 -26 81 -21 67 6 204 60 332 131 385 212 679 569 824 998 38 113 39
125 22 163 -22 49 -88 68 -139 40z"/>
</g>
</svg>
